<svg width="12246" height="8572" viewBox="0 0 12246 8572" fill="none" xmlns="http://www.w3.org/2000/svg">
<g clip-path="url(#clip0_205_561)">
<rect width="12246" height="8572" fill="#FFFCF2"/>
<rect y="7505" width="12246" height="1067" fill="#20501F"/>
<path d="M11235 7348.26C11235 7348.26 11259.7 7120.79 11189.1 6924.48C11118.6 6728.17 10945.6 6615.34 10945.6 6615.34" stroke="#50A44E" stroke-width="100" stroke-linecap="round"/>
<path d="M10689.7 6416.33C10758.3 6445.4 10800.8 6499.61 10784.7 6537.4C10768.7 6575.18 10700.1 6582.24 10631.6 6553.16C10563.1 6524.09 10451.8 6441.53 10459.6 6399.42C10540.3 6423.54 10621.2 6387.25 10689.7 6416.33Z" fill="#BD1A8F"/>
<path d="M10691.5 6638.15C10758.8 6606.35 10827.5 6610.67 10845.1 6647.78C10862.6 6684.9 10822.3 6740.76 10755 6772.55C10687.7 6804.35 10552 6832.48 10525.7 6798.64C10597.4 6754.51 10624.2 6669.94 10691.5 6638.15Z" fill="#BD1A8F"/>
<path d="M10887.4 6299.49C10930.6 6360.07 10938.5 6428.51 10905 6452.34C10871.6 6476.17 10809.5 6446.37 10766.3 6385.79C10723.1 6325.21 10671.4 6196.69 10700.1 6164.85C10756.2 6227.55 10844.2 6238.9 10887.4 6299.49Z" fill="#BD1A8F"/>
<path d="M1013.96 7335.26C1013.96 7335.26 989.292 7107.79 1059.83 6911.48C1130.37 6715.17 1303.41 6602.34 1303.41 6602.34" stroke="#50A44E" stroke-width="100" stroke-linecap="round"/>
<path d="M1559.22 6403.33C1490.71 6432.4 1448.2 6486.61 1464.26 6524.4C1480.31 6562.18 1548.87 6569.24 1617.37 6540.16C1685.88 6511.09 1797.13 6428.53 1789.33 6386.42C1708.7 6410.54 1627.72 6374.25 1559.22 6403.33Z" fill="#BD1A8F"/>
<path d="M1557.5 6625.15C1490.2 6593.35 1421.42 6597.67 1403.88 6634.78C1386.35 6671.9 1426.69 6727.76 1493.99 6759.55C1561.3 6791.35 1696.98 6819.48 1723.25 6785.64C1651.58 6741.51 1624.8 6656.94 1557.5 6625.15Z" fill="#BD1A8F"/>
<path d="M1361.59 6286.49C1318.4 6347.07 1310.49 6415.51 1343.93 6439.34C1377.38 6463.17 1439.51 6433.37 1482.7 6372.79C1525.9 6312.21 1577.57 6183.69 1548.9 6151.85C1492.79 6214.55 1404.79 6225.9 1361.59 6286.49Z" fill="#BD1A8F"/>
<path d="M11953.5 770.113C11953.5 770.113 11783.6 923.373 11705.5 1116.8C11627.4 1310.23 11681.4 1509.63 11681.4 1509.63" stroke="#50A44E" stroke-width="100" stroke-linecap="round"/>
<path d="M11739.7 1828.45C11707.9 1761.13 11712.3 1692.38 11749.4 1674.89C11786.6 1657.39 11842.4 1697.78 11874.2 1765.09C11905.9 1832.4 11933.9 1968.07 11900.1 1994.3C11856 1922.61 11771.4 1895.76 11739.7 1828.45Z" fill="#BD1A8F"/>
<path d="M11886.1 1661.82C11814.7 1640.72 11766.3 1591.7 11777.9 1552.33C11789.6 1512.97 11856.8 1498.16 11928.2 1519.26C11999.6 1540.36 12119.6 1609.74 12116.6 1652.47C12033.8 1637.66 11957.5 1682.92 11886.1 1661.82Z" fill="#BD1A8F"/>
<path d="M11514.4 1784C11522.5 1710.04 11562.2 1653.72 11603 1658.22C11643.9 1662.71 11670.4 1726.31 11662.2 1800.27C11654.1 1874.23 11607.1 2004.52 11564.5 2009.18C11564.4 1925.04 11506.3 1857.96 11514.4 1784Z" fill="#BD1A8F"/>
<path d="M447.637 770.113C447.637 770.113 617.519 923.373 695.626 1116.8C773.733 1310.23 719.779 1509.63 719.779 1509.63" stroke="#50A44E" stroke-width="100" stroke-linecap="round"/>
<path d="M661.474 1828.45C693.215 1761.13 688.837 1692.38 651.693 1674.89C614.55 1657.39 558.708 1697.78 526.966 1765.09C495.224 1832.4 467.207 1968.07 501.073 1994.3C545.153 1922.61 629.732 1895.76 661.474 1828.45Z" fill="#BD1A8F"/>
<path d="M515.038 1661.82C586.419 1640.72 634.854 1591.7 623.221 1552.33C611.588 1512.97 544.291 1498.16 472.911 1519.26C401.53 1540.36 281.572 1609.74 284.507 1652.47C367.361 1637.66 443.658 1682.92 515.038 1661.82Z" fill="#BD1A8F"/>
<path d="M886.713 1784C878.592 1710.04 838.917 1653.72 798.098 1658.22C757.278 1662.71 730.771 1726.31 738.892 1800.27C747.014 1874.23 794.046 2004.52 836.635 2009.18C836.746 1925.04 894.834 1857.96 886.713 1784Z" fill="#BD1A8F"/>
<path d="M11588.3 7083.4C11588.3 7083.4 11482.5 6880.52 11476.7 6672C11471 6463.48 11591.1 6295.4 11591.1 6295.4" stroke="#50A44E" stroke-width="100" stroke-linecap="round"/>
<path d="M11756.9 6016.93C11703.7 6068.95 11683.8 6134.91 11712.5 6164.26C11741.2 6193.61 11807.6 6175.23 11860.9 6123.21C11914.1 6071.19 11987.6 5953.81 11965.1 5917.42C11898.7 5969.24 11810.1 5964.91 11756.9 6016.93Z" fill="#006DB9"/>
<path d="M11836 6224.15C11761.8 6219.04 11699.3 6248.1 11696.5 6289.05C11693.6 6330 11751.5 6367.35 11825.8 6372.46C11900.1 6377.57 12036.7 6354.38 12048.8 6313.31C11966 6298.3 11910.3 6229.27 11836 6224.15Z" fill="#006DB9"/>
<path d="M11530.3 5980.04C11512.1 6052.19 11529.7 6118.81 11569.5 6128.83C11609.3 6138.85 11656.3 6088.49 11674.5 6016.34C11692.7 5944.19 11694 5805.68 11655.7 5786.46C11626.3 5865.28 11548.5 5907.89 11530.3 5980.04Z" fill="#006DB9"/>
<path d="M660.713 7070.4C660.713 7070.4 766.489 6867.52 772.245 6659C778.001 6450.48 657.9 6282.4 657.9 6282.4" stroke="#50A44E" stroke-width="100" stroke-linecap="round"/>
<path d="M492.082 6003.93C545.304 6055.95 565.174 6121.91 536.463 6151.26C507.752 6180.61 441.333 6162.23 388.111 6110.21C334.889 6058.19 261.321 5940.81 283.917 5904.42C350.229 5956.24 438.861 5951.91 492.082 6003.93Z" fill="#006DB9"/>
<path d="M412.942 6211.15C487.2 6206.04 549.689 6235.1 552.513 6276.05C555.338 6317 497.429 6354.35 423.17 6359.46C348.911 6364.57 212.292 6341.38 200.142 6300.31C282.959 6285.3 338.683 6216.27 412.942 6211.15Z" fill="#006DB9"/>
<path d="M718.682 5967.04C736.861 6039.19 719.315 6105.81 679.491 6115.83C639.667 6125.85 592.646 6075.49 574.467 6003.34C556.288 5931.19 554.937 5792.68 593.227 5773.46C622.672 5852.28 700.503 5894.89 718.682 5967.04Z" fill="#006DB9"/>
<path d="M11769.4 309.408C11769.4 309.408 11712.4 531.002 11577.3 689.927C11442.2 848.852 11240.5 893.557 11240.5 893.557" stroke="#50A44E" stroke-width="100" stroke-linecap="round"/>
<path d="M10931 989.808C11005.3 986.701 11064.2 950.928 11062.5 909.907C11060.8 868.886 10999.1 838.151 10924.7 841.258C10850.4 844.364 10717.2 882.482 10709.7 924.65C10793.6 930.442 10856.6 992.914 10931 989.808Z" fill="#006DB9"/>
<path d="M11010.7 782.785C11062.5 836.231 11128.4 856.399 11157.9 827.83C11187.3 799.262 11169.2 732.776 11117.4 679.33C11065.6 625.884 10948.5 551.797 10912 574.22C10963.6 640.751 10958.9 729.339 11010.7 782.785Z" fill="#006DB9"/>
<path d="M11074.9 1168.73C11136.6 1127.22 11168.1 1065.95 11145.2 1031.87C11122.3 997.794 11053.6 1003.82 10991.9 1045.32C10930.1 1086.83 10836.5 1188.93 10852.1 1228.82C10926.7 1189.89 11013.1 1210.23 11074.9 1168.73Z" fill="#006DB9"/>
<path d="M631.785 309.408C631.785 309.408 688.747 531.002 823.867 689.927C958.987 848.852 1160.66 893.557 1160.66 893.557" stroke="#50A44E" stroke-width="100" stroke-linecap="round"/>
<path d="M1470.15 989.808C1395.79 986.701 1336.92 950.928 1338.65 909.907C1340.38 868.886 1402.06 838.151 1476.42 841.258C1550.78 844.364 1683.96 882.482 1691.49 924.65C1607.53 930.442 1544.51 992.914 1470.15 989.808Z" fill="#006DB9"/>
<path d="M1390.47 782.785C1338.66 836.231 1272.77 856.399 1243.29 827.83C1213.81 799.262 1231.91 732.776 1283.72 679.33C1335.53 625.884 1452.63 551.797 1489.13 574.22C1437.57 640.751 1442.28 729.339 1390.47 782.785Z" fill="#006DB9"/>
<path d="M1326.29 1168.73C1264.53 1127.22 1233.05 1065.95 1255.97 1031.87C1278.88 997.794 1347.52 1003.82 1409.27 1045.32C1471.03 1086.83 1564.63 1188.93 1549 1228.82C1474.41 1189.89 1388.04 1210.23 1326.29 1168.73Z" fill="#006DB9"/>
</g>
<defs>
<clipPath id="clip0_205_561">
<rect width="12246" height="8572" fill="white"/>
</clipPath>
</defs>
</svg>
