<svg width="310" height="310" viewBox="0 0 310 310" fill="none" xmlns="http://www.w3.org/2000/svg">
<rect x="20" y="120" width="10" height="10" fill="#AB9191"/>
<rect x="20" y="130" width="10" height="10" fill="#AB9191"/>
<rect x="120" y="10" width="10" height="10" fill="#AB9191"/>
<rect x="120" y="20" width="10" height="10" fill="#AB9191"/>
<rect x="120" y="30" width="10" height="10" fill="#AB9191"/>
<rect x="120" y="40" width="10" height="10" fill="black"/>
<rect x="120" y="50" width="10" height="10" fill="#AB9191"/>
<rect x="120" y="60" width="10" height="10" fill="#AB9191"/>
<rect x="120" y="70" width="10" height="10" fill="#F2E4E2"/>
<rect x="120" y="80" width="10" height="10" fill="#F2E4E2"/>
<rect x="120" y="90" width="10" height="10" fill="#F2E4E2"/>
<rect x="120" y="100" width="10" height="10" fill="#F2E4E2"/>
<rect x="120" y="110" width="10" height="10" fill="#AB9191"/>
<rect x="120" y="120" width="10" height="10" fill="#AB9191"/>
<rect x="120" y="130" width="10" height="10" fill="#AB9191"/>
<rect x="120" y="140" width="10" height="10" fill="#AB9191"/>
<rect x="120" y="150" width="10" height="10" fill="#AB9191"/>
<rect x="120" y="160" width="10" height="10" fill="#AB9191"/>
<rect x="120" y="170" width="10" height="10" fill="#AB9191"/>
<rect x="120" y="180" width="10" height="10" fill="#AB9191"/>
<rect x="120" y="190" width="10" height="10" fill="#F2E4E2"/>
<rect x="120" y="200" width="10" height="10" fill="#F2E4E2"/>
<rect x="120" y="210" width="10" height="10" fill="#F2E4E2"/>
<rect x="120" y="220" width="10" height="10" fill="#AB9191"/>
<rect x="120" y="230" width="10" height="10" fill="#AB9191"/>
<rect x="120" y="240" width="10" height="10" fill="#AB9191"/>
<rect x="120" y="250" width="10" height="10" fill="#AB9191"/>
<rect x="120" y="260" width="10" height="10" fill="#AB9191"/>
<rect x="120" y="270" width="10" height="10" fill="#AB9191"/>
<rect x="120" y="280" width="10" height="10" fill="#AB9191"/>
<rect x="30" y="110" width="10" height="10" fill="#AB9191"/>
<rect x="30" y="120" width="10" height="10" fill="#006DB9"/>
<rect x="30" y="130" width="10" height="10" fill="#AB9191"/>
<rect x="30" y="140" width="10" height="10" fill="#AB9191"/>
<rect x="30" y="150" width="10" height="10" fill="#AB9191"/>
<rect x="130" y="20" width="10" height="10" fill="#AB9191"/>
<rect x="130" y="30" width="10" height="10" fill="#AB9191"/>
<rect x="130" y="40" width="10" height="10" fill="#AB9191"/>
<rect x="130" y="50" width="10" height="10" fill="#AB9191"/>
<rect x="130" y="60" width="10" height="10" fill="#F2E4E2"/>
<rect x="130" y="70" width="10" height="10" fill="#F2E4E2"/>
<rect x="130" y="80" width="10" height="10" fill="#F2E4E2"/>
<rect x="130" y="90" width="10" height="10" fill="black"/>
<rect x="130" y="100" width="10" height="10" fill="#F2E4E2"/>
<rect x="130" y="110" width="10" height="10" fill="#F2E4E2"/>
<rect x="130" y="120" width="10" height="10" fill="#AB9191"/>
<rect x="130" y="130" width="10" height="10" fill="#AB9191"/>
<rect x="130" y="140" width="10" height="10" fill="#AB9191"/>
<rect x="130" y="150" width="10" height="10" fill="#AB9191"/>
<rect x="130" y="160" width="10" height="10" fill="#AB9191"/>
<rect x="130" y="170" width="10" height="10" fill="#AB9191"/>
<rect x="130" y="180" width="10" height="10" fill="#F2E4E2"/>
<rect x="130" y="190" width="10" height="10" fill="#F2E4E2"/>
<rect x="130" y="200" width="10" height="10" fill="#F2E4E2"/>
<rect x="130" y="210" width="10" height="10" fill="#F2E4E2"/>
<rect x="130" y="220" width="10" height="10" fill="#F2E4E2"/>
<rect x="130" y="230" width="10" height="10" fill="#AB9191"/>
<rect x="130" y="240" width="10" height="10" fill="#AB9191"/>
<rect x="130" y="250" width="10" height="10" fill="#AB9191"/>
<rect x="130" y="260" width="10" height="10" fill="#AB9191"/>
<rect x="130" y="270" width="10" height="10" fill="#AB9191"/>
<rect x="130" y="280" width="10" height="10" fill="#AB9191"/>
<rect x="40" y="110" width="10" height="10" fill="#AB9191"/>
<rect x="40" y="120" width="10" height="10" fill="#006DB9"/>
<rect x="40" y="130" width="10" height="10" fill="#006DB9"/>
<rect x="40" y="140" width="10" height="10" fill="#AB9191"/>
<rect x="40" y="150" width="10" height="10" fill="#AB9191"/>
<rect x="40" y="160" width="10" height="10" fill="#AB9191"/>
<rect x="140" y="20" width="10" height="10" fill="#AB9191"/>
<rect x="140" y="30" width="10" height="10" fill="#AB9191"/>
<rect x="140" y="40" width="10" height="10" fill="#AB9191"/>
<rect x="140" y="50" width="10" height="10" fill="#AB9191"/>
<rect x="140" y="60" width="10" height="10" fill="#F2E4E2"/>
<rect x="140" y="70" width="10" height="10" fill="black"/>
<rect x="140" y="80" width="10" height="10" fill="#F2E4E2"/>
<rect x="140" y="90" width="10" height="10" fill="#F2E4E2"/>
<rect x="140" y="100" width="10" height="10" fill="black"/>
<rect x="140" y="110" width="10" height="10" fill="#F2E4E2"/>
<rect x="140" y="120" width="10" height="10" fill="#AB9191"/>
<rect x="140" y="130" width="10" height="10" fill="#AB9191"/>
<rect x="140" y="140" width="10" height="10" fill="#AB9191"/>
<rect x="140" y="150" width="10" height="10" fill="#AB9191"/>
<rect x="140" y="160" width="10" height="10" fill="#AB9191"/>
<rect x="140" y="170" width="10" height="10" fill="#F2E4E2"/>
<rect x="140" y="180" width="10" height="10" fill="#F2E4E2"/>
<rect x="140" y="190" width="10" height="10" fill="#F2E4E2"/>
<rect x="140" y="200" width="10" height="10" fill="#F2E4E2"/>
<rect x="140" y="210" width="10" height="10" fill="#F2E4E2"/>
<rect x="140" y="220" width="10" height="10" fill="#F2E4E2"/>
<rect x="140" y="230" width="10" height="10" fill="#F2E4E2"/>
<rect x="140" y="240" width="10" height="10" fill="#AB9191"/>
<rect x="140" y="250" width="10" height="10" fill="#AB9191"/>
<rect x="140" y="260" width="10" height="10" fill="#AB9191"/>
<rect x="140" y="270" width="10" height="10" fill="#AB9191"/>
<rect x="140" y="280" width="10" height="10" fill="#AB9191"/>
<rect x="50" y="120" width="10" height="10" fill="#AB9191"/>
<rect x="50" y="130" width="10" height="10" fill="#AB9191"/>
<rect x="50" y="140" width="10" height="10" fill="#AB9191"/>
<rect x="50" y="150" width="10" height="10" fill="#AB9191"/>
<rect x="50" y="160" width="10" height="10" fill="#AB9191"/>
<rect x="150" y="20" width="10" height="10" fill="#AB9191"/>
<rect x="150" y="30" width="10" height="10" fill="#AB9191"/>
<rect x="150" y="40" width="10" height="10" fill="#AB9191"/>
<rect x="150" y="50" width="10" height="10" fill="#AB9191"/>
<rect x="150" y="60" width="10" height="10" fill="#F2E4E2"/>
<rect x="150" y="70" width="10" height="10" fill="black"/>
<rect x="150" y="80" width="10" height="10" fill="black"/>
<rect x="150" y="90" width="10" height="10" fill="black"/>
<rect x="150" y="100" width="10" height="10" fill="black"/>
<rect x="150" y="110" width="10" height="10" fill="#F2E4E2"/>
<rect x="150" y="120" width="10" height="10" fill="#AB9191"/>
<rect x="150" y="130" width="10" height="10" fill="#AB9191"/>
<rect x="150" y="140" width="10" height="10" fill="#AB9191"/>
<rect x="150" y="150" width="10" height="10" fill="#AB9191"/>
<rect x="150" y="160" width="10" height="10" fill="#F2E4E2"/>
<rect x="150" y="170" width="10" height="10" fill="#F2E4E2"/>
<rect x="150" y="180" width="10" height="10" fill="#F2E4E2"/>
<rect x="150" y="190" width="10" height="10" fill="#F2E4E2"/>
<rect x="150" y="200" width="10" height="10" fill="#F2E4E2"/>
<rect x="150" y="210" width="10" height="10" fill="#F2E4E2"/>
<rect x="150" y="220" width="10" height="10" fill="#F2E4E2"/>
<rect x="150" y="230" width="10" height="10" fill="#F2E4E2"/>
<rect x="150" y="240" width="10" height="10" fill="#F2E4E2"/>
<rect x="150" y="250" width="10" height="10" fill="#AB9191"/>
<rect x="150" y="260" width="10" height="10" fill="#AB9191"/>
<rect x="150" y="270" width="10" height="10" fill="#AB9191"/>
<rect x="150" y="280" width="10" height="10" fill="#AB9191"/>
<rect x="220" y="10" width="10" height="10" fill="#AB9191"/>
<rect x="220" y="20" width="10" height="10" fill="#AB9191"/>
<rect x="220" y="30" width="10" height="10" fill="#AB9191"/>
<rect x="220" y="50" width="10" height="10" fill="#AB9191"/>
<rect x="220" y="60" width="10" height="10" fill="#AB9191"/>
<rect x="220" y="70" width="10" height="10" fill="#AB9191"/>
<rect x="220" y="80" width="10" height="10" fill="#AB9191"/>
<rect x="220" y="90" width="10" height="10" fill="#AB9191"/>
<rect x="220" y="100" width="10" height="10" fill="#AB9191"/>
<rect x="220" y="140" width="10" height="10" fill="#AB9191"/>
<rect x="220" y="150" width="10" height="10" fill="#AB9191"/>
<rect x="220" y="160" width="10" height="10" fill="#AB9191"/>
<rect x="220" y="170" width="10" height="10" fill="#AB9191"/>
<rect x="220" y="180" width="10" height="10" fill="#AB9191"/>
<rect x="220" y="190" width="10" height="10" fill="#AB9191"/>
<rect x="220" y="200" width="10" height="10" fill="#AB9191"/>
<rect x="220" y="210" width="10" height="10" fill="#AB9191"/>
<rect x="220" y="220" width="10" height="10" fill="#AB9191"/>
<rect x="220" y="230" width="10" height="10" fill="#AB9191"/>
<rect x="220" y="240" width="10" height="10" fill="#AB9191"/>
<rect x="220" y="250" width="10" height="10" fill="#AB9191"/>
<rect x="220" y="270" width="10" height="10" fill="#AB9191"/>
<rect x="220" y="280" width="10" height="10" fill="#AB9191"/>
<rect x="220" y="290" width="10" height="10" fill="#AB9191"/>
<rect x="220" y="300" width="10" height="10" fill="#AB9191"/>
<rect x="60" y="140" width="10" height="10" fill="#AB9191"/>
<rect x="60" y="150" width="10" height="10" fill="#AB9191"/>
<rect x="60" y="160" width="10" height="10" fill="#AB9191"/>
<rect x="60" y="170" width="10" height="10" fill="#AB9191"/>
<rect x="60" y="180" width="10" height="10" fill="#AB9191"/>
<rect x="60" y="190" width="10" height="10" fill="#AB9191"/>
<rect x="60" y="200" width="10" height="10" fill="#AB9191"/>
<rect x="60" y="210" width="10" height="10" fill="#AB9191"/>
<rect x="60" y="220" width="10" height="10" fill="#AB9191"/>
<rect x="160" y="20" width="10" height="10" fill="#AB9191"/>
<rect x="160" y="30" width="10" height="10" fill="#AB9191"/>
<rect x="160" y="40" width="10" height="10" fill="#AB9191"/>
<rect x="160" y="50" width="10" height="10" fill="#AB9191"/>
<rect x="160" y="60" width="10" height="10" fill="#F2E4E2"/>
<rect x="160" y="70" width="10" height="10" fill="black"/>
<rect x="160" y="80" width="10" height="10" fill="#F2E4E2"/>
<rect x="160" y="90" width="10" height="10" fill="#F2E4E2"/>
<rect x="160" y="100" width="10" height="10" fill="black"/>
<rect x="160" y="110" width="10" height="10" fill="#F2E4E2"/>
<rect x="160" y="120" width="10" height="10" fill="#AB9191"/>
<rect x="160" y="130" width="10" height="10" fill="#AB9191"/>
<rect x="160" y="140" width="10" height="10" fill="#AB9191"/>
<rect x="160" y="150" width="10" height="10" fill="#AB9191"/>
<rect x="160" y="160" width="10" height="10" fill="#AB9191"/>
<rect x="160" y="170" width="10" height="10" fill="#F2E4E2"/>
<rect x="160" y="180" width="10" height="10" fill="#F2E4E2"/>
<rect x="160" y="190" width="10" height="10" fill="#F2E4E2"/>
<rect x="160" y="200" width="10" height="10" fill="#F2E4E2"/>
<rect x="160" y="210" width="10" height="10" fill="#F2E4E2"/>
<rect x="160" y="220" width="10" height="10" fill="#F2E4E2"/>
<rect x="160" y="230" width="10" height="10" fill="#F2E4E2"/>
<rect x="160" y="240" width="10" height="10" fill="#AB9191"/>
<rect x="160" y="250" width="10" height="10" fill="#AB9191"/>
<rect x="160" y="260" width="10" height="10" fill="#AB9191"/>
<rect x="160" y="270" width="10" height="10" fill="#AB9191"/>
<rect x="160" y="280" width="10" height="10" fill="#AB9191"/>
<rect x="230" y="150" width="10" height="10" fill="#AB9191"/>
<rect x="230" y="160" width="10" height="10" fill="#AB9191"/>
<rect x="230" y="170" width="10" height="10" fill="#AB9191"/>
<rect x="230" y="180" width="10" height="10" fill="#AB9191"/>
<rect x="230" y="190" width="10" height="10" fill="#AB9191"/>
<rect x="230" y="200" width="10" height="10" fill="#AB9191"/>
<rect x="230" y="210" width="10" height="10" fill="#AB9191"/>
<rect x="230" y="220" width="10" height="10" fill="#AB9191"/>
<rect x="230" y="230" width="10" height="10" fill="#AB9191"/>
<rect x="230" y="240" width="10" height="10" fill="#AB9191"/>
<rect x="230" y="280" width="10" height="10" fill="#AB9191"/>
<rect x="230" y="290" width="10" height="10" fill="#AB9191"/>
<rect x="230" y="300" width="10" height="10" fill="#AB9191"/>
<rect x="70" y="150" width="10" height="10" fill="#AB9191"/>
<rect x="70" y="160" width="10" height="10" fill="#AB9191"/>
<rect x="70" y="170" width="10" height="10" fill="#AB9191"/>
<rect x="70" y="180" width="10" height="10" fill="#AB9191"/>
<rect x="70" y="190" width="10" height="10" fill="#AB9191"/>
<rect x="70" y="200" width="10" height="10" fill="#AB9191"/>
<rect x="70" y="210" width="10" height="10" fill="#AB9191"/>
<rect x="70" y="220" width="10" height="10" fill="#AB9191"/>
<rect x="70" y="230" width="10" height="10" fill="#AB9191"/>
<rect x="70" y="240" width="10" height="10" fill="#AB9191"/>
<rect x="70" y="280" width="10" height="10" fill="#AB9191"/>
<rect x="70" y="290" width="10" height="10" fill="#AB9191"/>
<rect x="70" y="300" width="10" height="10" fill="#AB9191"/>
<rect x="170" y="20" width="10" height="10" fill="#AB9191"/>
<rect x="170" y="30" width="10" height="10" fill="#AB9191"/>
<rect x="170" y="40" width="10" height="10" fill="#AB9191"/>
<rect x="170" y="50" width="10" height="10" fill="#AB9191"/>
<rect x="170" y="60" width="10" height="10" fill="#F2E4E2"/>
<rect x="170" y="70" width="10" height="10" fill="#F2E4E2"/>
<rect x="170" y="80" width="10" height="10" fill="#F2E4E2"/>
<rect x="170" y="90" width="10" height="10" fill="black"/>
<rect x="170" y="100" width="10" height="10" fill="#F2E4E2"/>
<rect x="170" y="110" width="10" height="10" fill="#F2E4E2"/>
<rect x="170" y="120" width="10" height="10" fill="#AB9191"/>
<rect x="170" y="130" width="10" height="10" fill="#AB9191"/>
<rect x="170" y="140" width="10" height="10" fill="#AB9191"/>
<rect x="170" y="150" width="10" height="10" fill="#AB9191"/>
<rect x="170" y="160" width="10" height="10" fill="#AB9191"/>
<rect x="170" y="170" width="10" height="10" fill="#AB9191"/>
<rect x="170" y="180" width="10" height="10" fill="#F2E4E2"/>
<rect x="170" y="190" width="10" height="10" fill="#F2E4E2"/>
<rect x="170" y="200" width="10" height="10" fill="#F2E4E2"/>
<rect x="170" y="210" width="10" height="10" fill="#F2E4E2"/>
<rect x="170" y="220" width="10" height="10" fill="#F2E4E2"/>
<rect x="170" y="230" width="10" height="10" fill="#AB9191"/>
<rect x="170" y="240" width="10" height="10" fill="#AB9191"/>
<rect x="170" y="250" width="10" height="10" fill="#AB9191"/>
<rect x="170" y="260" width="10" height="10" fill="#AB9191"/>
<rect x="170" y="270" width="10" height="10" fill="#AB9191"/>
<rect x="170" y="280" width="10" height="10" fill="#AB9191"/>
<rect x="240" y="140" width="10" height="10" fill="#AB9191"/>
<rect x="240" y="150" width="10" height="10" fill="#AB9191"/>
<rect x="240" y="160" width="10" height="10" fill="#AB9191"/>
<rect x="240" y="170" width="10" height="10" fill="#AB9191"/>
<rect x="240" y="180" width="10" height="10" fill="#AB9191"/>
<rect x="240" y="190" width="10" height="10" fill="#AB9191"/>
<rect x="240" y="200" width="10" height="10" fill="#AB9191"/>
<rect x="240" y="210" width="10" height="10" fill="#AB9191"/>
<rect x="240" y="220" width="10" height="10" fill="#AB9191"/>
<rect x="80" y="10" width="10" height="10" fill="#AB9191"/>
<rect x="80" y="20" width="10" height="10" fill="#AB9191"/>
<rect x="80" y="30" width="10" height="10" fill="#AB9191"/>
<rect x="80" y="50" width="10" height="10" fill="#AB9191"/>
<rect x="80" y="60" width="10" height="10" fill="#AB9191"/>
<rect x="80" y="70" width="10" height="10" fill="#AB9191"/>
<rect x="80" y="80" width="10" height="10" fill="#AB9191"/>
<rect x="80" y="90" width="10" height="10" fill="#AB9191"/>
<rect x="80" y="100" width="10" height="10" fill="#AB9191"/>
<rect x="80" y="140" width="10" height="10" fill="#AB9191"/>
<rect x="80" y="150" width="10" height="10" fill="#AB9191"/>
<rect x="80" y="160" width="10" height="10" fill="#AB9191"/>
<rect x="80" y="170" width="10" height="10" fill="#AB9191"/>
<rect x="80" y="180" width="10" height="10" fill="#AB9191"/>
<rect x="80" y="190" width="10" height="10" fill="#AB9191"/>
<rect x="80" y="200" width="10" height="10" fill="#AB9191"/>
<rect x="80" y="210" width="10" height="10" fill="#AB9191"/>
<rect x="80" y="220" width="10" height="10" fill="#AB9191"/>
<rect x="80" y="230" width="10" height="10" fill="#AB9191"/>
<rect x="80" y="240" width="10" height="10" fill="#AB9191"/>
<rect x="80" y="250" width="10" height="10" fill="#AB9191"/>
<rect x="80" y="270" width="10" height="10" fill="#AB9191"/>
<rect x="80" y="280" width="10" height="10" fill="#AB9191"/>
<rect x="80" y="290" width="10" height="10" fill="#AB9191"/>
<rect x="80" y="300" width="10" height="10" fill="#AB9191"/>
<rect x="180" y="10" width="10" height="10" fill="#AB9191"/>
<rect x="180" y="20" width="10" height="10" fill="#AB9191"/>
<rect x="180" y="30" width="10" height="10" fill="#AB9191"/>
<rect x="180" y="40" width="10" height="10" fill="black"/>
<rect x="180" y="50" width="10" height="10" fill="#AB9191"/>
<rect x="180" y="60" width="10" height="10" fill="#AB9191"/>
<rect x="180" y="70" width="10" height="10" fill="#F2E4E2"/>
<rect x="180" y="80" width="10" height="10" fill="#F2E4E2"/>
<rect x="180" y="90" width="10" height="10" fill="#F2E4E2"/>
<rect x="180" y="100" width="10" height="10" fill="#F2E4E2"/>
<rect x="180" y="110" width="10" height="10" fill="#AB9191"/>
<rect x="180" y="120" width="10" height="10" fill="#AB9191"/>
<rect x="180" y="130" width="10" height="10" fill="#AB9191"/>
<rect x="180" y="140" width="10" height="10" fill="#AB9191"/>
<rect x="180" y="150" width="10" height="10" fill="#AB9191"/>
<rect x="180" y="160" width="10" height="10" fill="#AB9191"/>
<rect x="180" y="170" width="10" height="10" fill="#AB9191"/>
<rect x="180" y="180" width="10" height="10" fill="#AB9191"/>
<rect x="180" y="190" width="10" height="10" fill="#F2E4E2"/>
<rect x="180" y="200" width="10" height="10" fill="#F2E4E2"/>
<rect x="180" y="210" width="10" height="10" fill="#F2E4E2"/>
<rect x="180" y="220" width="10" height="10" fill="#AB9191"/>
<rect x="180" y="230" width="10" height="10" fill="#AB9191"/>
<rect x="180" y="240" width="10" height="10" fill="#AB9191"/>
<rect x="180" y="250" width="10" height="10" fill="#AB9191"/>
<rect x="180" y="260" width="10" height="10" fill="#AB9191"/>
<rect x="180" y="270" width="10" height="10" fill="#AB9191"/>
<rect x="180" y="280" width="10" height="10" fill="#AB9191"/>
<rect x="250" y="120" width="10" height="10" fill="#AB9191"/>
<rect x="250" y="130" width="10" height="10" fill="#AB9191"/>
<rect x="250" y="140" width="10" height="10" fill="#AB9191"/>
<rect x="250" y="150" width="10" height="10" fill="#AB9191"/>
<rect x="250" y="160" width="10" height="10" fill="#AB9191"/>
<rect x="90" width="10" height="10" fill="#AB9191"/>
<rect x="90" y="10" width="10" height="10" fill="#006DB9"/>
<rect x="90" y="20" width="10" height="10" fill="#006DB9"/>
<rect x="90" y="30" width="10" height="10" fill="#AB9191"/>
<rect x="90" y="40" width="10" height="10" fill="#AB9191"/>
<rect x="90" y="50" width="10" height="10" fill="#AB9191"/>
<rect x="90" y="60" width="10" height="10" fill="#AB9191"/>
<rect x="90" y="70" width="10" height="10" fill="#AB9191"/>
<rect x="90" y="80" width="10" height="10" fill="#AB9191"/>
<rect x="90" y="90" width="10" height="10" fill="#AB9191"/>
<rect x="90" y="100" width="10" height="10" fill="#AB9191"/>
<rect x="90" y="110" width="10" height="10" fill="#AB9191"/>
<rect x="90" y="130" width="10" height="10" fill="#AB9191"/>
<rect x="90" y="140" width="10" height="10" fill="#AB9191"/>
<rect x="90" y="150" width="10" height="10" fill="#AB9191"/>
<rect x="90" y="160" width="10" height="10" fill="#AB9191"/>
<rect x="90" y="170" width="10" height="10" fill="#AB9191"/>
<rect x="90" y="180" width="10" height="10" fill="#AB9191"/>
<rect x="90" y="190" width="10" height="10" fill="#AB9191"/>
<rect x="90" y="200" width="10" height="10" fill="#AB9191"/>
<rect x="90" y="210" width="10" height="10" fill="#AB9191"/>
<rect x="90" y="220" width="10" height="10" fill="#AB9191"/>
<rect x="90" y="230" width="10" height="10" fill="#AB9191"/>
<rect x="90" y="240" width="10" height="10" fill="#AB9191"/>
<rect x="90" y="250" width="10" height="10" fill="#AB9191"/>
<rect x="90" y="260" width="10" height="10" fill="#AB9191"/>
<rect x="90" y="270" width="10" height="10" fill="#AB9191"/>
<rect x="90" y="280" width="10" height="10" fill="#AB9191"/>
<rect x="90" y="290" width="10" height="10" fill="#AB9191"/>
<rect x="90" y="300" width="10" height="10" fill="#AB9191"/>
<rect x="190" width="10" height="10" fill="#AB9191"/>
<rect x="190" y="10" width="10" height="10" fill="#AB9191"/>
<rect x="190" y="20" width="10" height="10" fill="#AB9191"/>
<rect x="190" y="30" width="10" height="10" fill="#AB9191"/>
<rect x="190" y="40" width="10" height="10" fill="black"/>
<rect x="190" y="50" width="10" height="10" fill="#AB9191"/>
<rect x="190" y="60" width="10" height="10" fill="#AB9191"/>
<rect x="190" y="70" width="10" height="10" fill="#BD1A8F"/>
<rect x="190" y="80" width="10" height="10" fill="#BD1A8F"/>
<rect x="190" y="90" width="10" height="10" fill="#AB9191"/>
<rect x="190" y="100" width="10" height="10" fill="#AB9191"/>
<rect x="190" y="110" width="10" height="10" fill="#AB9191"/>
<rect x="190" y="120" width="10" height="10" fill="#AB9191"/>
<rect x="190" y="130" width="10" height="10" fill="#AB9191"/>
<rect x="190" y="140" width="10" height="10" fill="#AB9191"/>
<rect x="190" y="150" width="10" height="10" fill="#AB9191"/>
<rect x="190" y="160" width="10" height="10" fill="#AB9191"/>
<rect x="190" y="170" width="10" height="10" fill="#AB9191"/>
<rect x="190" y="180" width="10" height="10" fill="#AB9191"/>
<rect x="190" y="190" width="10" height="10" fill="#AB9191"/>
<rect x="190" y="200" width="10" height="10" fill="#AB9191"/>
<rect x="190" y="210" width="10" height="10" fill="#AB9191"/>
<rect x="190" y="220" width="10" height="10" fill="#AB9191"/>
<rect x="190" y="230" width="10" height="10" fill="#AB9191"/>
<rect x="190" y="240" width="10" height="10" fill="#AB9191"/>
<rect x="190" y="250" width="10" height="10" fill="#AB9191"/>
<rect x="190" y="260" width="10" height="10" fill="#AB9191"/>
<rect x="190" y="270" width="10" height="10" fill="#AB9191"/>
<rect x="190" y="280" width="10" height="10" fill="#AB9191"/>
<rect x="260" y="110" width="10" height="10" fill="#AB9191"/>
<rect x="260" y="120" width="10" height="10" fill="#BD1A8F"/>
<rect x="260" y="130" width="10" height="10" fill="#BD1A8F"/>
<rect x="260" y="140" width="10" height="10" fill="#AB9191"/>
<rect x="260" y="150" width="10" height="10" fill="#AB9191"/>
<rect x="260" y="160" width="10" height="10" fill="#AB9191"/>
<rect x="100" width="10" height="10" fill="#AB9191"/>
<rect x="100" y="10" width="10" height="10" fill="#006DB9"/>
<rect x="100" y="20" width="10" height="10" fill="#AB9191"/>
<rect x="100" y="30" width="10" height="10" fill="#AB9191"/>
<rect x="100" y="40" width="10" height="10" fill="#AB9191"/>
<rect x="100" y="50" width="10" height="10" fill="#AB9191"/>
<rect x="100" y="60" width="10" height="10" fill="#AB9191"/>
<rect x="100" y="70" width="10" height="10" fill="#006DB9"/>
<rect x="100" y="80" width="10" height="10" fill="#006DB9"/>
<rect x="100" y="90" width="10" height="10" fill="#AB9191"/>
<rect x="100" y="100" width="10" height="10" fill="#AB9191"/>
<rect x="100" y="110" width="10" height="10" fill="#AB9191"/>
<rect x="100" y="130" width="10" height="10" fill="#AB9191"/>
<rect x="100" y="140" width="10" height="10" fill="#AB9191"/>
<rect x="100" y="150" width="10" height="10" fill="#AB9191"/>
<rect x="100" y="160" width="10" height="10" fill="#AB9191"/>
<rect x="100" y="170" width="10" height="10" fill="#AB9191"/>
<rect x="100" y="180" width="10" height="10" fill="#AB9191"/>
<rect x="100" y="190" width="10" height="10" fill="#AB9191"/>
<rect x="100" y="200" width="10" height="10" fill="#AB9191"/>
<rect x="100" y="210" width="10" height="10" fill="#AB9191"/>
<rect x="100" y="220" width="10" height="10" fill="#AB9191"/>
<rect x="100" y="230" width="10" height="10" fill="#AB9191"/>
<rect x="100" y="240" width="10" height="10" fill="#AB9191"/>
<rect x="100" y="250" width="10" height="10" fill="#AB9191"/>
<rect x="100" y="260" width="10" height="10" fill="#AB9191"/>
<rect x="100" y="270" width="10" height="10" fill="#AB9191"/>
<rect x="100" y="280" width="10" height="10" fill="#AB9191"/>
<rect x="100" y="290" width="10" height="10" fill="#AB9191"/>
<rect x="100" y="300" width="10" height="10" fill="#AB9191"/>
<rect x="200" width="10" height="10" fill="#AB9191"/>
<rect x="200" y="10" width="10" height="10" fill="#BD1A8F"/>
<rect x="200" y="20" width="10" height="10" fill="#AB9191"/>
<rect x="200" y="30" width="10" height="10" fill="#AB9191"/>
<rect x="200" y="40" width="10" height="10" fill="#AB9191"/>
<rect x="200" y="50" width="10" height="10" fill="#AB9191"/>
<rect x="200" y="60" width="10" height="10" fill="#AB9191"/>
<rect x="200" y="70" width="10" height="10" fill="#BD1A8F"/>
<rect x="200" y="80" width="10" height="10" fill="#BD1A8F"/>
<rect x="200" y="90" width="10" height="10" fill="#AB9191"/>
<rect x="200" y="100" width="10" height="10" fill="#AB9191"/>
<rect x="200" y="110" width="10" height="10" fill="#AB9191"/>
<rect x="200" y="130" width="10" height="10" fill="#AB9191"/>
<rect x="200" y="140" width="10" height="10" fill="#AB9191"/>
<rect x="200" y="150" width="10" height="10" fill="#AB9191"/>
<rect x="200" y="160" width="10" height="10" fill="#AB9191"/>
<rect x="200" y="170" width="10" height="10" fill="#AB9191"/>
<rect x="200" y="180" width="10" height="10" fill="#AB9191"/>
<rect x="200" y="190" width="10" height="10" fill="#AB9191"/>
<rect x="200" y="200" width="10" height="10" fill="#AB9191"/>
<rect x="200" y="210" width="10" height="10" fill="#AB9191"/>
<rect x="200" y="220" width="10" height="10" fill="#AB9191"/>
<rect x="200" y="230" width="10" height="10" fill="#AB9191"/>
<rect x="200" y="240" width="10" height="10" fill="#AB9191"/>
<rect x="200" y="250" width="10" height="10" fill="#AB9191"/>
<rect x="200" y="260" width="10" height="10" fill="#AB9191"/>
<rect x="200" y="270" width="10" height="10" fill="#AB9191"/>
<rect x="200" y="280" width="10" height="10" fill="#AB9191"/>
<rect x="200" y="290" width="10" height="10" fill="#AB9191"/>
<rect x="200" y="300" width="10" height="10" fill="#AB9191"/>
<rect x="270" y="110" width="10" height="10" fill="#AB9191"/>
<rect x="270" y="120" width="10" height="10" fill="#BD1A8F"/>
<rect x="270" y="130" width="10" height="10" fill="#AB9191"/>
<rect x="270" y="140" width="10" height="10" fill="#AB9191"/>
<rect x="270" y="150" width="10" height="10" fill="#AB9191"/>
<rect x="110" width="10" height="10" fill="#AB9191"/>
<rect x="110" y="10" width="10" height="10" fill="#AB9191"/>
<rect x="110" y="20" width="10" height="10" fill="#AB9191"/>
<rect x="110" y="30" width="10" height="10" fill="#AB9191"/>
<rect x="110" y="40" width="10" height="10" fill="black"/>
<rect x="110" y="50" width="10" height="10" fill="#AB9191"/>
<rect x="110" y="60" width="10" height="10" fill="#AB9191"/>
<rect x="110" y="70" width="10" height="10" fill="#006DB9"/>
<rect x="110" y="80" width="10" height="10" fill="#006DB9"/>
<rect x="110" y="90" width="10" height="10" fill="#AB9191"/>
<rect x="110" y="100" width="10" height="10" fill="#AB9191"/>
<rect x="110" y="110" width="10" height="10" fill="#AB9191"/>
<rect x="110" y="120" width="10" height="10" fill="#AB9191"/>
<rect x="110" y="130" width="10" height="10" fill="#AB9191"/>
<rect x="110" y="140" width="10" height="10" fill="#AB9191"/>
<rect x="110" y="150" width="10" height="10" fill="#AB9191"/>
<rect x="110" y="160" width="10" height="10" fill="#AB9191"/>
<rect x="110" y="170" width="10" height="10" fill="#AB9191"/>
<rect x="110" y="180" width="10" height="10" fill="#AB9191"/>
<rect x="110" y="190" width="10" height="10" fill="#AB9191"/>
<rect x="110" y="200" width="10" height="10" fill="#AB9191"/>
<rect x="110" y="210" width="10" height="10" fill="#AB9191"/>
<rect x="110" y="220" width="10" height="10" fill="#AB9191"/>
<rect x="110" y="230" width="10" height="10" fill="#AB9191"/>
<rect x="110" y="240" width="10" height="10" fill="#AB9191"/>
<rect x="110" y="250" width="10" height="10" fill="#AB9191"/>
<rect x="110" y="260" width="10" height="10" fill="#AB9191"/>
<rect x="110" y="270" width="10" height="10" fill="#AB9191"/>
<rect x="110" y="280" width="10" height="10" fill="#AB9191"/>
<rect x="210" width="10" height="10" fill="#AB9191"/>
<rect x="210" y="10" width="10" height="10" fill="#BD1A8F"/>
<rect x="210" y="20" width="10" height="10" fill="#BD1A8F"/>
<rect x="210" y="30" width="10" height="10" fill="#AB9191"/>
<rect x="210" y="40" width="10" height="10" fill="#AB9191"/>
<rect x="210" y="50" width="10" height="10" fill="#AB9191"/>
<rect x="210" y="60" width="10" height="10" fill="#AB9191"/>
<rect x="210" y="70" width="10" height="10" fill="#AB9191"/>
<rect x="210" y="80" width="10" height="10" fill="#AB9191"/>
<rect x="210" y="90" width="10" height="10" fill="#AB9191"/>
<rect x="210" y="100" width="10" height="10" fill="#AB9191"/>
<rect x="210" y="110" width="10" height="10" fill="#AB9191"/>
<rect x="210" y="130" width="10" height="10" fill="#AB9191"/>
<rect x="210" y="140" width="10" height="10" fill="#AB9191"/>
<rect x="210" y="150" width="10" height="10" fill="#AB9191"/>
<rect x="210" y="160" width="10" height="10" fill="#AB9191"/>
<rect x="210" y="170" width="10" height="10" fill="#AB9191"/>
<rect x="210" y="180" width="10" height="10" fill="#AB9191"/>
<rect x="210" y="190" width="10" height="10" fill="#AB9191"/>
<rect x="210" y="200" width="10" height="10" fill="#AB9191"/>
<rect x="210" y="210" width="10" height="10" fill="#AB9191"/>
<rect x="210" y="220" width="10" height="10" fill="#AB9191"/>
<rect x="210" y="230" width="10" height="10" fill="#AB9191"/>
<rect x="210" y="240" width="10" height="10" fill="#AB9191"/>
<rect x="210" y="250" width="10" height="10" fill="#AB9191"/>
<rect x="210" y="260" width="10" height="10" fill="#AB9191"/>
<rect x="210" y="270" width="10" height="10" fill="#AB9191"/>
<rect x="210" y="280" width="10" height="10" fill="#AB9191"/>
<rect x="210" y="290" width="10" height="10" fill="#AB9191"/>
<rect x="210" y="300" width="10" height="10" fill="#AB9191"/>
<rect x="280" y="120" width="10" height="10" fill="#AB9191"/>
<rect x="280" y="130" width="10" height="10" fill="#AB9191"/>
</svg>
