<svg width="138" height="176" viewBox="0 0 138 176" fill="none" xmlns="http://www.w3.org/2000/svg">
<g clip-path="url(#clip0_207_1257)">
<rect x="46" y="44" width="23" height="22" fill="#4A4444"/>
<rect x="69" y="44" width="23" height="22" fill="#917207"/>
<rect x="115" y="44" width="23" height="22" fill="#4A4444"/>
<rect x="69" y="66" width="23" height="22" fill="#917207"/>
<rect x="92" y="66" width="23" height="22" fill="#917207"/>
<rect x="69" y="88" width="23" height="22" fill="#917207"/>
<rect x="46" y="88" width="23" height="22" fill="#655C3B"/>
<rect x="46" y="66" width="23" height="22" fill="#655C3B"/>
<rect x="92" y="44" width="23" height="22" fill="#655C3B"/>
<rect x="46" y="110" width="23" height="22" fill="#655C3B"/>
<rect x="23" y="110" width="23" height="22" fill="#655C3B"/>
<rect x="23" y="66" width="23" height="22" fill="#655C3B"/>
<rect x="69" y="22" width="23" height="22" fill="#655C3B"/>
<rect x="92" y="88" width="23" height="22" fill="#917207"/>
<rect x="69" y="110" width="23" height="22" fill="#5F1D1E"/>
<rect x="92" y="110" width="23" height="22" fill="#5F1D1E"/>
<rect x="115" y="110" width="23" height="22" fill="#4A4444"/>
<rect x="69" y="132" width="23" height="22" fill="#5F1D1E"/>
<rect x="92" y="132" width="23" height="22" fill="#5F1D1E"/>
<rect x="115" y="132" width="23" height="22" fill="#4A4444"/>
<rect x="23" y="132" width="23" height="22" fill="#5F1D1E"/>
<rect x="69" y="154" width="23" height="22" fill="#4A4444"/>
<rect y="22" width="23" height="22" fill="#4A4444"/>
<rect x="23" y="22" width="23" height="22" fill="#4A4444"/>
<rect x="46" width="23" height="22" fill="#4A4444"/>
<rect x="23" y="88" width="23" height="22" fill="#917207"/>
<rect x="46" y="154" width="23" height="22" fill="#4A4444"/>
<rect x="23" y="44" width="23" height="22" fill="#4A4444"/>
<rect x="46" y="22" width="23" height="22" fill="#4A4444"/>
<rect x="92" y="22" width="23" height="22" fill="#4A4444"/>
<rect x="92" width="23" height="22" fill="#4A4444"/>
<rect x="46" y="132" width="23" height="22" fill="#5F1D1E"/>
<rect x="69" y="132" width="23" height="22" fill="#5F1D1E"/>
<rect x="92" y="132" width="23" height="22" fill="#5F1D1E"/>
<rect x="115" y="132" width="23" height="22" fill="#4A4444"/>
<rect x="69" y="132" width="23" height="22" fill="#5F1D1E"/>
<rect x="92" y="132" width="23" height="22" fill="#5F1D1E"/>
<rect x="115" y="132" width="23" height="22" fill="#4A4444"/>
<rect y="88" width="23" height="22" fill="#4A4444"/>
</g>
<defs>
<clipPath id="clip0_207_1257">
<rect width="138" height="176" fill="white"/>
</clipPath>
</defs>
</svg>
