<svg width="138" height="176" viewBox="0 0 138 176" fill="none" xmlns="http://www.w3.org/2000/svg">
<g clip-path="url(#clip0_207_1362)">
<rect x="46" y="66" width="23" height="22" fill="#FFED50"/>
<rect x="69" y="66" width="23" height="22" fill="#B5B832"/>
<rect x="92" y="66" width="23" height="22" fill="#929360"/>
<rect x="69" y="88" width="23" height="22" fill="#FFED50"/>
<rect x="46" y="88" width="23" height="22" fill="#FFED50"/>
<rect x="46" y="110" width="23" height="22" fill="#FFED50"/>
<rect x="23" y="110" width="23" height="22" fill="#FFED50"/>
<rect x="23" y="66" width="23" height="22" fill="#929360"/>
<rect y="88" width="23" height="22" fill="#929360"/>
<rect x="69" y="44" width="23" height="22" fill="#B5B832"/>
<rect x="46" y="44" width="23" height="22" fill="#B5B832"/>
<rect x="92" y="88" width="23" height="22" fill="#FFED50"/>
<rect x="115" y="88" width="23" height="22" fill="#FFED50"/>
<rect x="69" y="110" width="23" height="22" fill="#FFED50"/>
<rect x="92" y="110" width="23" height="22" fill="#FFED50"/>
<rect x="115" y="110" width="23" height="22" fill="#FFED50"/>
<rect y="132" width="23" height="22" fill="#FFED50"/>
<rect x="69" y="132" width="23" height="22" fill="#FF4F51"/>
<rect x="92" y="132" width="23" height="22" fill="#FF4F51"/>
<rect x="23" y="132" width="23" height="22" fill="#FFED50"/>
<rect x="23" y="154" width="23" height="22" fill="#FFED50"/>
<rect x="46" y="22" width="23" height="22" fill="#FFED50"/>
<rect x="23" y="88" width="23" height="22" fill="#FFED50"/>
<path d="M46 0H69V22H46V0Z" fill="#B88A32"/>
<rect x="92" y="154" width="23" height="22" fill="#929360"/>
<rect x="23" y="44" width="23" height="22" fill="#929360"/>
<rect x="69" y="132" width="23" height="22" fill="#FF4F51"/>
<rect x="92" y="132" width="23" height="22" fill="#FF4F51"/>
<rect x="69" y="132" width="23" height="22" fill="#929360"/>
<rect x="92" y="132" width="23" height="22" fill="#FFED50"/>
</g>
<defs>
<clipPath id="clip0_207_1362">
<rect width="138" height="176" fill="white"/>
</clipPath>
</defs>
</svg>
