<svg width="138" height="176" viewBox="0 0 138 176" fill="none" xmlns="http://www.w3.org/2000/svg">
<g clip-path="url(#clip0_207_1308)">
<rect x="46" y="44" width="23" height="22" fill="#B5B832"/>
<rect x="115" y="44" width="23" height="22" fill="#929360"/>
<rect x="69" y="66" width="23" height="22" fill="#B5B832"/>
<rect x="115" y="66" width="23" height="22" fill="#929360"/>
<rect y="88" width="23" height="22" fill="#4A4444"/>
<rect x="69" y="88" width="23" height="22" fill="#4A4444"/>
<rect x="46" y="88" width="23" height="22" fill="#4A4444"/>
<rect x="46" y="110" width="23" height="22" fill="#FF4F51"/>
<rect x="23" y="110" width="23" height="22" fill="#674FFF"/>
<rect x="23" y="66" width="23" height="22" fill="#929360"/>
<rect y="44" width="23" height="22" fill="#929360"/>
<rect x="69" y="22" width="23" height="22" fill="#B5B832"/>
<rect x="46" y="22" width="23" height="22" fill="#B5B832"/>
<rect x="92" y="88" width="23" height="22" fill="#4A4444"/>
<rect x="115" y="88" width="23" height="22" fill="#4A4444"/>
<rect y="110" width="23" height="22" fill="#4A4444"/>
<rect x="69" y="110" width="23" height="22" fill="#FF4F51"/>
<rect x="92" y="110" width="23" height="22" fill="#FF4F51"/>
<rect x="115" y="110" width="23" height="22" fill="#4A4444"/>
<rect y="132" width="23" height="22" fill="#4A4444"/>
<rect x="69" y="132" width="23" height="22" fill="#FF4F51"/>
<rect x="92" y="132" width="23" height="22" fill="#FF4F51"/>
<rect x="115" y="132" width="23" height="22" fill="#4A4444"/>
<rect x="23" y="132" width="23" height="22" fill="#FF4F51"/>
<rect x="23" y="154" width="23" height="22" fill="#4A4444"/>
<rect x="69" y="154" width="23" height="22" fill="#4A4444"/>
<rect x="23" width="23" height="22" fill="#929360"/>
<rect x="23" y="88" width="23" height="22" fill="#4A4444"/>
<rect x="69" width="23" height="22" fill="#B5B832"/>
<rect x="46" y="154" width="23" height="22" fill="#4A4444"/>
<rect x="92" y="154" width="23" height="22" fill="#4A4444"/>
<rect x="23" y="22" width="23" height="22" fill="#929360"/>
<rect x="92" y="22" width="23" height="22" fill="#929360"/>
<rect x="92" y="44" width="23" height="22" fill="#929360"/>
<rect x="115" width="23" height="22" fill="#929360"/>
<rect x="46" y="132" width="23" height="22" fill="#FF4F51"/>
<rect x="69" y="132" width="23" height="22" fill="#FF4F51"/>
<rect x="92" y="132" width="23" height="22" fill="#FF4F51"/>
<rect x="115" y="132" width="23" height="22" fill="#4A4444"/>
<rect x="69" y="132" width="23" height="22" fill="#674FFF"/>
<rect x="92" y="132" width="23" height="22" fill="#FF4F51"/>
<rect x="115" y="132" width="23" height="22" fill="#4A4444"/>
</g>
<defs>
<clipPath id="clip0_207_1308">
<rect width="138" height="176" fill="white"/>
</clipPath>
</defs>
</svg>
